

<svg width="50" height="50" viewBox="0 0 20 20" xmlns="http://www.w3.org/2000/svg"><path d="M10 2C4.54 2 0 5.516 0 10v.002q.003.75.18 1.486a.5.5 0 0 0 .656.354q.25-.09.506-.162c3.246-.87 6.386.652 7.09 3.277.2.753.184 1.553-.047 2.342a.5.5 0 0 0 .43.639q.588.06 1.181.062H10c5.46 0 10-3.516 10-8s-4.54-8-10-8m0 1c5.033 0 9 3.2 9 7s-3.965 6.998-8.996 7c-.216-.001-.431-.022-.647-.035.133-.76.235-1.53.04-2.266-.869-3.241-4.622-4.97-8.31-3.984-.032-.24-.086-.476-.087-.717C1.001 6.199 4.967 3 10 3m-.5 1C8.677 4 8 4.677 8 5.5S8.677 7 9.5 7 11 6.323 11 5.5 10.323 4 9.5 4m-4 1C4.677 5 4 5.677 4 6.5S4.677 8 5.5 8 7 7.323 7 6.5 6.323 5 5.5 5m4 0c.282 0 .5.218.5.5s-.218.5-.5.5a.493.493 0 0 1-.5-.5c0-.282.218-.5.5-.5m4 0c-.823 0-1.5.677-1.5 1.5S12.677 8 13.5 8 15 7.323 15 6.5 14.323 5 13.5 5m-8 1c.282 0 .5.218.5.5s-.218.5-.5.5a.493.493 0 0 1-.5-.5c0-.282.218-.5.5-.5m8 0c.282 0 .5.218.5.5s-.218.5-.5.5a.493.493 0 0 1-.5-.5c0-.282.218-.5.5-.5m3 2c-.823 0-1.5.677-1.5 1.5s.677 1.5 1.5 1.5 1.5-.677 1.5-1.5S17.323 8 16.5 8m0 1c.282 0 .5.218.5.5s-.218.5-.5.5a.493.493 0 0 1-.5-.5c0-.282.218-.5.5-.5m-3 3c-.823 0-1.5.677-1.5 1.5s.677 1.5 1.5 1.5 1.5-.677 1.5-1.5-.677-1.5-1.5-1.5m0 1c.282 0 .5.218.5.5s-.218.5-.5.5a.493.493 0 0 1-.5-.5c0-.282.218-.5.5-.5" style="fill:#222;fill-opacity:1;stroke:none;stroke-width:0"/></svg>



